<svg width="120" height="120" viewBox="0 0 120 120" fill="none" xmlns="http://www.w3.org/2000/svg">
<path d="M11.5 101.4L59.5 53.3995L52.5 46.2995L48.9 49.8495C48.4374 50.313 47.888 50.6808 47.2831 50.9317C46.6783 51.1826 46.0298 51.3117 45.375 51.3117C44.7202 51.3117 44.0718 51.1826 43.4669 50.9317C42.862 50.6808 42.3126 50.313 41.85 49.8495L38.3 46.2995C37.8365 45.837 37.4687 45.2875 37.2178 44.6826C36.9669 44.0778 36.8378 43.4294 36.8378 42.7745C36.8378 42.1197 36.9669 41.4713 37.2178 40.8664C37.4687 40.2615 37.8365 39.7121 38.3 39.2495L66.6 10.9495C67.0626 10.486 67.612 10.1183 68.2169 9.86736C68.8218 9.61646 69.4702 9.4873 70.125 9.4873C70.7798 9.4873 71.4283 9.61646 72.0331 9.86736C72.638 10.1183 73.1874 10.486 73.65 10.9495L77.2 14.4995C79.15 16.4495 79.15 19.5995 77.2 21.5495L73.65 24.9995L80.75 32.1495C81.2126 31.686 81.762 31.3183 82.3669 31.0674C82.9717 30.8165 83.6202 30.6873 84.275 30.6873C84.9298 30.6873 85.5783 30.8165 86.1831 31.0674C86.788 31.3183 87.3374 31.686 87.8 32.1495C89.75 34.0995 89.75 37.2995 87.8 39.2495L94.85 46.2995L98.4 42.7495C100.35 40.7995 103.55 40.7995 105.5 42.7495L109 46.2995C110.95 48.2495 110.95 51.4495 109 53.3995L80.75 81.6495C78.8 83.5995 75.6 83.5995 73.65 81.6495L70.15 78.1495C69.6752 77.6882 69.2978 77.1363 69.0401 76.5265C68.7824 75.9168 68.6496 75.2615 68.6496 74.5995C68.6496 73.9375 68.7824 73.2823 69.0401 72.6725C69.2978 72.0627 69.6752 71.5109 70.15 71.0495L73.65 67.4995L66.6 60.4495L18.55 108.5C18.0874 108.963 17.538 109.331 16.9331 109.582C16.3283 109.833 15.6798 109.962 15.025 109.962C14.3702 109.962 13.7218 109.833 13.1169 109.582C12.512 109.331 11.9626 108.963 11.5 108.5C9.55001 106.55 9.55001 103.35 11.5 101.4ZM100 94.9995C102.652 94.9995 105.196 96.0531 107.071 97.9285C108.946 99.8038 110 102.347 110 105V110H60V105C60 102.347 61.0536 99.8038 62.9289 97.9285C64.8043 96.0531 67.3478 94.9995 70 94.9995H100Z" fill="#F7C322"/>
</svg>
