<svg width="39" height="40" viewBox="0 0 39 40" fill="none" xmlns="http://www.w3.org/2000/svg">
<path d="M23.7417 37.3417C23.875 37.3944 23.9952 37.4208 24.1021 37.4208C24.2091 37.4208 24.3292 37.3944 24.4625 37.3417L36.5792 33.6083C36.5375 32.975 36.3486 32.5187 36.0125 32.2396C35.6736 31.9604 35.291 31.8208 34.8646 31.8208H24.9792C24.0986 31.8208 23.3 31.7861 22.5834 31.7167C21.8667 31.6472 21.1341 31.4819 20.3854 31.2208L16.8146 30.0708C16.5299 29.9764 16.325 29.7889 16.2 29.5083C16.075 29.2278 16.0597 28.95 16.1542 28.675C16.2486 28.4 16.4264 28.1986 16.6875 28.0708C16.9486 27.9431 17.225 27.9271 17.5167 28.0229L20.7459 29.1917C21.4153 29.4194 22.157 29.5653 22.9709 29.6292C23.7834 29.6931 24.7896 29.7292 25.9896 29.7375H26.5313C26.5313 29.0875 26.4111 28.5625 26.1709 28.1625C25.9306 27.7625 25.5882 27.4833 25.1438 27.325L13.1563 22.925C13.0771 22.8986 13.0035 22.8792 12.9354 22.8667C12.8674 22.8542 12.7945 22.8472 12.7167 22.8458H8.34169V32.8625L23.7417 37.3417ZM23.2104 39.4L8.34169 35.05C8.14308 35.8722 7.72294 36.5278 7.08128 37.0167C6.43961 37.5056 5.73822 37.75 4.97711 37.75H3.37295C2.44795 37.75 1.65628 37.4201 0.997945 36.7604C0.338223 36.1021 0.00836182 35.3104 0.00836182 34.3854V24.125C0.00836182 23.2 0.337528 22.4083 0.995862 21.75C1.65558 21.0903 2.44795 20.7604 3.37295 20.7604H12.6709C12.8653 20.7604 13.0646 20.7826 13.2688 20.8271C13.4743 20.8701 13.6653 20.9215 13.8417 20.9812L25.8813 25.3917C26.6271 25.675 27.2688 26.184 27.8063 26.9187C28.3452 27.6535 28.6146 28.5924 28.6146 29.7354H34.8646C36.1188 29.7354 37.0799 30.1278 37.7479 30.9125C38.416 31.6986 38.75 32.6951 38.75 33.9021C38.75 34.3187 38.6375 34.6701 38.4125 34.9562C38.1875 35.2424 37.8577 35.4583 37.4229 35.6042L25.1646 39.3854C24.8618 39.4715 24.5424 39.5215 24.2063 39.5354C23.8702 39.5493 23.5375 39.5035 23.2084 39.3979M2.0917 34.3833C2.0917 34.7583 2.21183 35.066 2.45211 35.3062C2.69239 35.5465 2.99933 35.6667 3.37295 35.6667H4.97711C5.35072 35.6667 5.65767 35.5667 5.89794 35.3667C6.13822 35.1667 6.25836 34.8389 6.25836 34.3833V22.8458H3.37295C2.99933 22.8458 2.69239 22.966 2.45211 23.2062C2.21183 23.4465 2.0917 23.7542 2.0917 24.1292V34.3833ZM27.6917 18.4958C27.2778 18.4958 26.8709 18.4201 26.4709 18.2687C26.0722 18.1174 25.7077 17.891 25.3771 17.5896L19.8479 12.2854C18.9313 11.4035 18.1667 10.4174 17.5542 9.32708C16.9417 8.23542 16.6354 7.04792 16.6354 5.76458C16.6354 4.23125 17.1716 2.92917 18.2438 1.85833C19.3146 0.786111 20.6153 0.25 22.1459 0.25C23.2834 0.25 24.3181 0.557639 25.25 1.17292C26.182 1.78819 26.9952 2.53542 27.6896 3.41458C28.3841 2.53542 29.1979 1.78819 30.1313 1.17292C31.0618 0.557639 32.0966 0.25 33.2354 0.25C34.7674 0.25 36.0688 0.786111 37.1396 1.85833C38.2104 2.93056 38.7472 4.23194 38.75 5.7625C38.75 7.04861 38.4459 8.2368 37.8375 9.32708C37.2278 10.4174 36.4646 11.4035 35.5479 12.2854L30.0063 17.5896C29.6771 17.8924 29.3125 18.1187 28.9125 18.2687C28.5125 18.4187 28.1056 18.4944 27.6917 18.4958ZM28.575 16.0917L33.9292 10.9604C34.6695 10.2465 35.3111 9.45625 35.8542 8.58958C36.3959 7.72292 36.6667 6.78056 36.6667 5.7625C36.6667 4.8125 36.3334 4.00347 35.6667 3.33542C35 2.66736 34.1896 2.33333 33.2354 2.33333C32.4021 2.33333 31.6549 2.58264 30.9938 3.08125C30.3327 3.57847 29.7389 4.16528 29.2125 4.84167L28.8646 5.2625C28.5632 5.64167 28.1743 5.83125 27.6979 5.83125C27.2216 5.83125 26.8278 5.64167 26.5167 5.2625L26.1688 4.84167C25.641 4.16528 25.0472 3.57847 24.3875 3.08125C23.7264 2.58264 22.9792 2.33333 22.1459 2.33333C21.1945 2.33333 20.3854 2.66667 19.7188 3.33333C19.0507 4.00278 18.7167 4.8125 18.7167 5.7625C18.7167 6.78056 18.9875 7.72292 19.5292 8.58958C20.0709 9.45625 20.7118 10.2465 21.4521 10.9604L26.8084 16.0917C27.0486 16.3319 27.3424 16.4521 27.6896 16.4521C28.0368 16.4521 28.3306 16.3319 28.5709 16.0917" fill="#F7C322"/>
</svg>
