<svg width="40" height="40" viewBox="0 0 40 40" fill="none" xmlns="http://www.w3.org/2000/svg">
<path d="M20 19.1668C18.8949 19.1668 17.8351 18.7278 17.0537 17.9464C16.2723 17.165 15.8333 16.1052 15.8333 15.0002C15.8333 13.8951 16.2723 12.8353 17.0537 12.0539C17.8351 11.2725 18.8949 10.8335 20 10.8335C21.1051 10.8335 22.1649 11.2725 22.9463 12.0539C23.7277 12.8353 24.1667 13.8951 24.1667 15.0002C24.1667 15.5473 24.0589 16.0892 23.8495 16.5947C23.6401 17.1002 23.3332 17.5595 22.9463 17.9464C22.5594 18.3334 22.1 18.6403 21.5945 18.8497C21.089 19.0591 20.5472 19.1668 20 19.1668ZM20 3.3335C16.9058 3.3335 13.9383 4.56266 11.7504 6.75058C9.5625 8.93851 8.33334 11.906 8.33334 15.0002C8.33334 23.7502 20 36.6668 20 36.6668C20 36.6668 31.6667 23.7502 31.6667 15.0002C31.6667 11.906 30.4375 8.93851 28.2496 6.75058C26.0617 4.56266 23.0942 3.3335 20 3.3335Z" fill="white"/>
</svg>
