<svg width="40" height="40" viewBox="0 0 40 40" fill="none" xmlns="http://www.w3.org/2000/svg">
<path d="M6.66667 33.3332C5.75 33.3332 4.96556 33.0071 4.31334 32.3548C3.66111 31.7026 3.33445 30.9176 3.33334 29.9998V9.99984C3.33334 9.08317 3.66 8.29873 4.31334 7.6465C4.96667 6.99428 5.75111 6.66762 6.66667 6.6665H33.3333C34.25 6.6665 35.035 6.99317 35.6883 7.6465C36.3417 8.29984 36.6678 9.08428 36.6667 9.99984V29.9998C36.6667 30.9165 36.3406 31.7015 35.6883 32.3548C35.0361 33.0082 34.2511 33.3343 33.3333 33.3332H6.66667ZM20 21.6665L33.3333 13.3332V9.99984L20 18.3332L6.66667 9.99984V13.3332L20 21.6665Z" fill="white"/>
</svg>
