<svg width="120" height="120" viewBox="0 0 120 120" fill="none" xmlns="http://www.w3.org/2000/svg">
<path d="M18 33C18 29.0218 19.5804 25.2064 22.3934 22.3934C25.2064 19.5804 29.0218 18 33 18H87C90.9782 18 94.7936 19.5804 97.6066 22.3934C100.42 25.2064 102 29.0218 102 33V49.392C99.7979 48.0731 97.7906 46.4535 96.036 44.58L96 44.544V33C96 30.6131 95.0518 28.3239 93.364 26.636C91.6761 24.9482 89.3869 24 87 24H33C30.6131 24 28.3239 24.9482 26.636 26.636C24.9482 28.3239 24 30.6131 24 33V87C24 89.3869 24.9482 91.6761 26.636 93.364C28.3239 95.0518 30.6131 96 33 96H64.932C66.1397 98.1455 67.5718 100.157 69.204 102H33C29.0218 102 25.2064 100.42 22.3934 97.6066C19.5804 94.7936 18 90.9782 18 87V33ZM111.6 58.002C104.25 58.002 97.656 54.942 91.704 48.732C91.4854 48.5014 91.222 48.3178 90.9301 48.1923C90.6382 48.0668 90.3238 48.0021 90.006 48.0021C89.6882 48.0021 89.3738 48.0668 89.0819 48.1923C88.7899 48.3178 88.5266 48.5014 88.308 48.732C82.338 54.948 75.738 58.002 68.4 58.002C67.08 58.002 66 59.118 66 60.498V75.504L66.024 76.956C66.486 92.256 74.346 102.696 89.244 107.874C89.736 108.042 90.264 108.042 90.756 107.874C106.122 102.534 114 91.596 114 75.504V60.504L113.964 60.048C113.874 59.4833 113.587 58.9686 113.155 58.5943C112.722 58.2201 112.172 58.0104 111.6 58.002ZM81.84 66.66L90 74.82L98.13 66.69C98.5565 66.2926 99.1207 66.0762 99.7036 66.0865C100.286 66.0968 100.843 66.3329 101.255 66.7451C101.667 67.1574 101.903 67.7135 101.914 68.2964C101.924 68.8793 101.707 69.4435 101.31 69.87L93.18 78L101.31 86.13C101.707 86.5565 101.924 87.1207 101.914 87.7036C101.903 88.2865 101.667 88.8426 101.255 89.2549C100.843 89.6671 100.286 89.9032 99.7036 89.9135C99.1207 89.9238 98.5565 89.7074 98.13 89.31L90 81.18L81.87 89.31C81.4435 89.7074 80.8793 89.9238 80.2964 89.9135C79.7135 89.9032 79.1574 89.6671 78.7451 89.2549C78.3329 88.8426 78.0968 88.2865 78.0865 87.7036C78.0762 87.1207 78.2926 86.5565 78.69 86.13L86.82 78L78.66 69.84C78.2626 69.4135 78.0462 68.8493 78.0565 68.2664C78.0668 67.6835 78.3029 67.1274 78.7151 66.7151C79.1274 66.3029 79.6835 66.0668 80.2664 66.0565C80.8493 66.0462 81.4135 66.2626 81.84 66.66Z" fill="#F7C322"/>
</svg>
