<svg width="38" height="46" viewBox="0 0 38 46" fill="none" xmlns="http://www.w3.org/2000/svg">
<path d="M10.6667 25.0834H27.3333M10.6667 25.0834V35.5C10.6667 39.4292 10.6667 41.3917 11.8875 42.6125C13.1083 43.8334 15.0708 43.8334 19 43.8334C22.9292 43.8334 24.8917 43.8334 26.1125 42.6125C27.3333 41.3917 27.3333 39.4292 27.3333 35.5V25.0834M10.6667 25.0834C7.10416 25.0834 4.10416 27.75 3.6875 31.2917L2.33333 42.7917M27.3333 25.0834C30.8958 25.0834 33.8958 27.75 34.3125 31.2917L35.6667 42.7917" stroke="#F7C322" stroke-width="3.125" stroke-linecap="round"/>
<path d="M19 18.8334C23.6024 18.8334 27.3333 15.1024 27.3333 10.5C27.3333 5.89765 23.6024 2.16669 19 2.16669C14.3976 2.16669 10.6667 5.89765 10.6667 10.5C10.6667 15.1024 14.3976 18.8334 19 18.8334Z" stroke="#F7C322" stroke-width="3.125"/>
</svg>
